<?xml version="1.0" encoding="utf-8"?>
<!-- Generator: Adobe Illustrator 22.0.0, SVG Export Plug-In . SVG Version: 6.00 Build 0)  -->
<svg version="1.1" id="Capa_1" xmlns="http://www.w3.org/2000/svg" xmlns:xlink="http://www.w3.org/1999/xlink" x="0px" y="0px"
	 viewBox="0 0 56 44.4" style="enable-background:new 0 0 56 44.4;" xml:space="preserve">
<style type="text/css">
	.st0{fill:#8C0E0E;}
	.st1{fill:none;}
	.st2{enable-background:new    ;}
	.st3{fill:#FFFFFF;}
</style>
<g>
	<path class="st0" d="M55,0H1C0.4,0,0,0.4,0,1v42.5c0,0.6,0.4,1,1,1H55c0.6,0,1-0.4,1-1V1C56,0.4,55.6,0,55,0z M9.7,42.5H1.9v-8.7
		h7.7V42.5z M9.7,31.9H1.9v-8.7h7.7V31.9z M9.7,21.2H1.9v-8.7h7.7V21.2z M9.7,10.6H1.9V1.9h7.7V10.6z M54.1,42.5h-7.7v-8.7h7.7V42.5
		z M54.1,31.9h-7.7v-8.7h7.7V31.9z M54.1,21.2h-7.7v-8.7h7.7V21.2z M54.1,10.6h-7.7V1.9h7.7V10.6z"/>
</g>
<g>
	<rect x="21.1" y="14.6" class="st1" width="13.7" height="15.3"/>
</g>
<g class="st2">
	<path class="st3" d="M32.1,29.6l-4.8-5.7l-1.8,1.7l0.1,3.7l-2.7,0.1l-0.1-2.9l-1.1-1l1.1-1l-0.2-8.2l2.7-0.1l0.1,5.9l6.5-6l1.9,1.8
		L29.3,22l5,6L32.1,29.6z"/>
</g>
</svg>
